<svg xmlns="http://www.w3.org/2000/svg" xmlns:xlink="http://www.w3.org/1999/xlink" width="1000" zoomAndPan="magnify" viewBox="0 0 750 749.999995" height="1000" preserveAspectRatio="xMidYMid meet" version="1.0"><defs><clipPath id="dcc3421555"><path d="M 18.085938 18.085938 L 731.914062 18.085938 L 731.914062 731.914062 L 18.085938 731.914062 Z M 18.085938 18.085938 " clip-rule="nonzero"/></clipPath><clipPath id="a0975bc5a4"><path d="M 52.585938 18.085938 L 697.414062 18.085938 C 706.5625 18.085938 715.339844 21.71875 721.808594 28.191406 C 728.28125 34.660156 731.914062 43.4375 731.914062 52.585938 L 731.914062 697.414062 C 731.914062 706.5625 728.28125 715.339844 721.808594 721.808594 C 715.339844 728.28125 706.5625 731.914062 697.414062 731.914062 L 52.585938 731.914062 C 43.4375 731.914062 34.660156 728.28125 28.191406 721.808594 C 21.71875 715.339844 18.085938 706.5625 18.085938 697.414062 L 18.085938 52.585938 C 18.085938 43.4375 21.71875 34.660156 28.191406 28.191406 C 34.660156 21.71875 43.4375 18.085938 52.585938 18.085938 Z M 52.585938 18.085938 " clip-rule="nonzero"/></clipPath><clipPath id="b86bb3dd24"><path d="M 42 54 L 707 54 L 707 696.277344 L 42 696.277344 Z M 42 54 " clip-rule="nonzero"/></clipPath></defs><g clip-path="url(#dcc3421555)"><g clip-path="url(#a0975bc5a4)"><path fill="#ff90bc" d="M 18.085938 18.085938 L 731.914062 18.085938 L 731.914062 731.914062 L 18.085938 731.914062 Z M 18.085938 18.085938 " fill-opacity="1" fill-rule="nonzero"/></g></g><g clip-path="url(#b86bb3dd24)"><path fill="#f7f7f7" d="M 248.605469 353.035156 C 246.71875 358.839844 240.460938 362.027344 234.65625 360.140625 C 228.851562 358.261719 225.664062 352 227.550781 346.195312 C 229.070312 341.523438 233.421875 338.550781 238.089844 338.550781 C 239.21875 338.550781 240.363281 338.722656 241.5 339.089844 C 247.304688 340.976562 250.492188 347.230469 248.605469 353.035156 Z M 65.140625 321.394531 L 88.199219 309.644531 C 93.648438 306.867188 95.808594 300.203125 93.039062 294.757812 L 81.289062 271.703125 C 95.074219 250.8125 115.28125 234.59375 138.75 225.710938 C 164.085938 216.121094 192.230469 215.445312 217.996094 223.816406 C 281.945312 244.597656 332.230469 292.601562 355.949219 355.515625 L 363.859375 376.484375 L 363.859375 378.074219 C 362.484375 377.8125 361.101562 377.625 359.710938 377.5 L 271.273438 348.765625 C 270.910156 335.101562 262.0625 322.492188 248.34375 318.035156 C 230.929688 312.375 212.160156 321.941406 206.5 339.355469 C 200.839844 356.769531 210.40625 375.539062 227.820312 381.195312 C 231.214844 382.300781 234.664062 382.824219 238.058594 382.824219 C 248.367188 382.824219 258.167969 377.976562 264.4375 369.816406 L 300.933594 381.679688 C 252.359375 389.972656 207.878906 412.726562 172.839844 447.066406 C 164.316406 445.375 155.847656 443.171875 147.597656 440.488281 C 121.832031 432.117188 99.457031 415.027344 84.597656 392.378906 C 70.835938 371.394531 64.015625 346.402344 65.140625 321.394531 Z M 261.015625 192.5625 C 261.015625 165.46875 270.347656 138.914062 287.304688 117.78125 C 303.007812 98.207031 324.675781 83.996094 348.800781 77.339844 L 367.101562 95.640625 C 371.425781 99.960938 378.429688 99.960938 382.753906 95.640625 L 401.050781 77.339844 C 425.175781 83.996094 446.84375 98.207031 462.550781 117.78125 C 479.503906 138.914062 488.835938 165.46875 488.835938 192.5625 C 488.835938 259.804688 458.722656 322.460938 406.21875 364.460938 L 389.773438 377.617188 L 387.140625 378.472656 C 386.882812 376.613281 386.496094 374.769531 385.996094 372.949219 L 385.996094 281.5 C 398.878906 276.933594 408.132812 264.621094 408.132812 250.191406 C 408.132812 231.882812 393.238281 216.984375 374.925781 216.984375 C 356.617188 216.984375 341.722656 231.882812 341.722656 250.191406 C 341.722656 264.621094 350.972656 276.933594 363.859375 281.5 L 363.859375 319.320312 C 340.949219 276.101562 305.742188 241.160156 262.5625 218.601562 C 261.535156 209.972656 261.015625 201.242188 261.015625 192.5625 Z M 508.351562 339.089844 C 509.488281 338.722656 510.632812 338.550781 511.761719 338.550781 C 516.433594 338.550781 520.78125 341.523438 522.300781 346.195312 C 524.1875 352 521 358.253906 515.195312 360.140625 C 509.390625 362.027344 503.132812 358.84375 501.246094 353.035156 C 499.359375 347.230469 502.546875 340.976562 508.351562 339.089844 Z M 531.855469 223.816406 C 557.621094 215.445312 585.765625 216.121094 611.101562 225.710938 C 634.570312 234.59375 654.777344 250.8125 668.5625 271.703125 L 656.816406 294.757812 C 654.042969 300.203125 656.203125 306.867188 661.652344 309.644531 L 684.710938 321.394531 C 685.835938 346.402344 679.015625 371.394531 665.257812 392.378906 C 650.394531 415.027344 628.019531 432.117188 602.257812 440.488281 C 538.308594 461.265625 469.414062 451.992188 413.238281 415.035156 L 395.214844 403.175781 L 393.851562 401.300781 C 396.101562 400.214844 398.257812 398.941406 400.296875 397.476562 L 485.414062 369.816406 C 491.683594 377.976562 501.484375 382.824219 511.796875 382.824219 C 515.1875 382.824219 518.636719 382.300781 522.03125 381.195312 L 522.035156 381.195312 C 539.445312 375.539062 549.011719 356.769531 543.351562 339.355469 C 537.695312 321.941406 518.917969 312.382812 501.511719 318.035156 C 487.789062 322.492188 478.941406 335.101562 478.578125 348.765625 L 443.785156 360.070312 C 477.410156 325.039062 499.515625 281.046875 507.570312 233.335938 C 515.460938 229.691406 523.605469 226.5 531.855469 223.816406 Z M 468.457031 503.980469 C 472.046875 508.921875 470.941406 515.855469 466.007812 519.445312 C 461.070312 523.03125 454.132812 521.933594 450.546875 516.996094 C 448.8125 514.601562 448.109375 511.679688 448.566406 508.757812 C 449.03125 505.839844 450.605469 503.273438 453 501.535156 C 455.386719 499.796875 458.3125 499.097656 461.234375 499.5625 C 464.15625 500.019531 466.722656 501.59375 468.457031 503.980469 Z M 585.828125 491.058594 C 601.746094 512.980469 609.804688 539.953125 608.515625 567.015625 C 607.316406 592.082031 598.136719 616.308594 582.53125 635.875 L 556.972656 631.824219 C 550.929688 630.867188 545.265625 634.992188 544.308594 641.027344 L 540.253906 666.585938 C 516.828125 675.386719 490.945312 676.628906 466.738281 670.019531 C 440.601562 662.886719 417.4375 646.886719 401.511719 624.96875 C 361.988281 570.570312 349.523438 502.183594 367.3125 437.339844 L 373.402344 415.140625 C 373.421875 415.066406 373.445312 414.996094 373.46875 414.921875 L 373.976562 414.222656 C 375.671875 416.046875 377.527344 417.71875 379.519531 419.234375 L 432.136719 491.652344 C 429.359375 495.679688 427.496094 500.316406 426.707031 505.296875 C 425.316406 514.054688 427.425781 522.832031 432.640625 530.011719 C 439.125 538.9375 449.269531 543.683594 459.542969 543.683594 C 466.3125 543.683594 473.136719 541.625 479.023438 537.355469 C 493.832031 526.59375 497.128906 505.785156 486.367188 490.972656 C 481.152344 483.796875 473.457031 479.078125 464.695312 477.695312 C 459.71875 476.90625 454.734375 477.246094 450.042969 478.644531 L 428.679688 449.238281 C 461.746094 465.308594 497.652344 473.511719 533.921875 473.511719 C 545.691406 473.511719 557.507812 472.644531 569.273438 470.90625 C 575.175781 477.285156 580.722656 484.042969 585.828125 491.058594 Z M 299.304688 516.996094 C 295.71875 521.933594 288.777344 523.027344 283.84375 519.445312 C 278.910156 515.855469 277.808594 508.921875 281.394531 503.980469 C 283.128906 501.59375 285.699219 500.019531 288.617188 499.5625 C 291.539062 499.097656 294.464844 499.796875 296.859375 501.539062 C 299.246094 503.273438 300.820312 505.839844 301.285156 508.757812 C 301.742188 511.679688 301.042969 514.601562 299.304688 516.996094 Z M 363.859375 250.191406 C 363.859375 244.089844 368.824219 239.125 374.925781 239.125 C 381.027344 239.125 385.996094 244.089844 385.996094 250.191406 C 385.996094 256.292969 381.027344 261.261719 374.925781 261.261719 C 368.824219 261.261719 363.859375 256.292969 363.859375 250.191406 Z M 348.339844 624.96875 C 332.414062 646.886719 309.25 662.886719 283.113281 670.019531 C 258.902344 676.628906 233.03125 675.386719 209.597656 666.585938 L 205.542969 641.027344 C 204.59375 634.992188 198.921875 630.867188 192.878906 631.824219 L 167.324219 635.875 C 151.714844 616.308594 142.539062 592.082031 141.339844 567.015625 C 140.046875 539.953125 148.105469 512.976562 164.027344 491.058594 C 203.550781 436.664062 264.738281 403.675781 331.90625 400.554688 L 354.898438 399.484375 C 355.15625 399.476562 355.414062 399.464844 355.675781 399.464844 L 356.039062 399.582031 C 355.152344 401.167969 354.363281 402.808594 353.675781 404.5 L 299.808594 478.644531 C 295.113281 477.246094 290.136719 476.90625 285.15625 477.695312 C 276.398438 479.078125 268.699219 483.796875 263.484375 490.972656 C 252.726562 505.785156 256.023438 526.59375 270.835938 537.355469 C 276.714844 541.625 283.535156 543.683594 290.308594 543.683594 C 300.582031 543.683594 310.726562 538.9375 317.210938 530.011719 C 322.425781 522.832031 324.535156 514.054688 323.144531 505.296875 C 322.355469 500.316406 320.492188 495.679688 317.714844 491.652344 L 339.730469 461.351562 C 332.707031 509.984375 340.625 559.179688 362.394531 602.996094 C 358.152344 610.582031 353.4375 617.953125 348.339844 624.96875 Z M 43.523438 313.316406 C 40.464844 345.285156 48.476562 377.671875 66.085938 404.523438 C 83.699219 431.371094 110.21875 451.617188 140.753906 461.539062 C 145.640625 463.128906 150.589844 464.566406 155.585938 465.84375 C 152.320312 469.792969 149.160156 473.863281 146.121094 478.050781 C 127.242188 504.023438 117.691406 535.996094 119.226562 568.070312 C 120.757812 600.144531 133.316406 631.058594 154.578125 655.113281 C 157.085938 657.949219 160.863281 659.3125 164.605469 658.71875 L 185.410156 655.421875 L 188.707031 676.230469 C 189.304688 679.96875 191.761719 683.148438 195.230469 684.648438 C 213.109375 692.414062 232.398438 696.34375 251.726562 696.34375 C 264.238281 696.34375 276.769531 694.695312 288.945312 691.371094 C 319.917969 682.917969 347.375 663.960938 366.246094 637.980469 C 369.269531 633.832031 372.164062 629.5625 374.921875 625.203125 C 377.667969 629.535156 380.5625 633.792969 383.605469 637.980469 C 402.476562 663.960938 429.933594 682.917969 460.90625 691.371094 C 473.082031 694.695312 485.609375 696.34375 498.128906 696.34375 C 517.453125 696.34375 536.742188 692.414062 554.621094 684.648438 C 558.089844 683.148438 560.550781 679.96875 561.144531 676.230469 L 564.441406 655.421875 L 585.25 658.71875 C 588.988281 659.3125 592.765625 657.949219 595.273438 655.113281 C 616.535156 631.058594 629.089844 600.144531 630.625 568.070312 C 632.160156 535.996094 622.609375 504.023438 603.730469 478.050781 C 600.714844 473.894531 597.554688 469.824219 594.261719 465.851562 C 599.230469 464.578125 604.175781 463.140625 609.097656 461.539062 C 639.632812 451.617188 666.152344 431.371094 683.765625 404.523438 C 701.375 377.671875 709.390625 345.285156 706.332031 313.316406 C 705.96875 309.554688 703.710938 306.230469 700.335938 304.511719 L 681.566406 294.945312 L 691.128906 276.175781 C 692.847656 272.804688 692.722656 268.789062 690.804688 265.53125 C 674.492188 237.871094 648.96875 216.375 618.941406 205.011719 C 588.90625 193.640625 555.554688 192.839844 525.015625 202.765625 C 520.128906 204.351562 515.28125 206.101562 510.488281 208.003906 C 510.8125 202.886719 510.972656 197.734375 510.972656 192.5625 C 510.972656 160.453125 499.910156 128.972656 479.816406 103.929688 C 459.722656 78.878906 431.398438 61.253906 400.050781 54.289062 C 396.355469 53.46875 392.496094 54.589844 389.820312 57.261719 L 374.925781 72.160156 L 360.03125 57.261719 C 357.355469 54.589844 353.496094 53.46875 349.800781 54.289062 C 318.453125 61.253906 290.128906 78.878906 270.035156 103.929688 C 249.941406 128.972656 238.878906 160.453125 238.878906 192.5625 C 238.878906 197.699219 239.046875 202.851562 239.371094 207.992188 C 234.605469 206.105469 229.753906 204.359375 224.835938 202.765625 C 194.296875 192.84375 160.945312 193.640625 130.914062 205.011719 C 100.886719 216.375 75.359375 237.871094 59.050781 265.53125 C 57.128906 268.789062 57.007812 272.804688 58.726562 276.175781 L 68.285156 294.945312 L 49.515625 304.511719 C 46.144531 306.230469 43.882812 309.554688 43.523438 313.316406 " fill-opacity="1" fill-rule="nonzero"/></g><path fill="#f7f7f7" d="M 338.5 421.570312 L 329.847656 401.1875 L 289.09375 418.488281 L 297.746094 438.867188 L 338.5 421.570312 " fill-opacity="1" fill-rule="nonzero"/><path fill="#f7f7f7" d="M 367.761719 439.148438 L 371.617188 483.253906 L 393.667969 481.324219 L 389.808594 437.21875 L 367.761719 439.148438 " fill-opacity="1" fill-rule="nonzero"/><path fill="#f7f7f7" d="M 415.574219 414.824219 L 458.71875 424.785156 L 463.695312 403.214844 L 420.554688 393.253906 L 415.574219 414.824219 " fill-opacity="1" fill-rule="nonzero"/><path fill="#f7f7f7" d="M 354.230469 353.402344 L 325.1875 319.992188 L 308.484375 334.519531 L 337.527344 367.929688 L 354.230469 353.402344 " fill-opacity="1" fill-rule="nonzero"/><path fill="#f7f7f7" d="M 407.21875 361.832031 L 430.019531 323.882812 L 411.042969 312.476562 L 388.242188 350.429688 L 407.21875 361.832031 " fill-opacity="1" fill-rule="nonzero"/></svg>